<svg height="480pt" viewBox="0 -48 480 480" width="480pt" xmlns="http://www.w3.org/2000/svg"><path d="m360 320h-240c-4.417969 0-8-3.582031-8-8s3.582031-8 8-8h240c4.417969 0 8 3.582031 8 8s-3.582031 8-8 8zm0 0" fill="#fce666"/><path d="m376 288h-272c-4.417969 0-8-3.582031-8-8s3.582031-8 8-8h272c4.417969 0 8 3.582031 8 8s-3.582031 8-8 8zm0 0" fill="#fce666"/><path d="m304 384h-128c-4.417969 0-8-3.582031-8-8s3.582031-8 8-8h128c4.417969 0 8 3.582031 8 8s-3.582031 8-8 8zm0 0" fill="#fce666"/><path d="m344 352h-200c-4.417969 0-8-3.582031-8-8s3.582031-8 8-8h200c4.417969 0 8 3.582031 8 8s-3.582031 8-8 8zm0 0" fill="#fce666"/><g fill="#fdd020"><path d="m240 80c-4.417969 0-8-3.582031-8-8v-64c0-4.417969 3.582031-8 8-8s8 3.582031 8 8v64c0 4.417969-3.582031 8-8 8zm0 0"/><path d="m120 128c-2.121094 0-4.15625-.84375-5.65625-2.34375l-48-48c-3.03125-3.140625-2.988281-8.128906.097656-11.214844 3.085938-3.085937 8.074219-3.128906 11.214844-.097656l48 48c2.285156 2.289062 2.972656 5.730469 1.734375 8.71875s-4.15625 4.9375-7.390625 4.9375zm0 0"/><path d="m360 128c-3.234375 0-6.152344-1.949219-7.390625-4.9375s-.550781-6.429688 1.734375-8.71875l48-48c3.140625-3.03125 8.128906-2.988281 11.214844.097656 3.085937 3.085938 3.128906 8.074219.097656 11.214844l-48 48c-1.5 1.5-3.535156 2.34375-5.65625 2.34375zm0 0"/><path d="m472 256h-64c-4.417969 0-8-3.582031-8-8s3.582031-8 8-8h64c4.417969 0 8 3.582031 8 8s-3.582031 8-8 8zm0 0"/><path d="m72 256h-64c-4.417969 0-8-3.582031-8-8s3.582031-8 8-8h64c4.417969 0 8 3.582031 8 8s-3.582031 8-8 8zm0 0"/><path d="m376 248v-8c0-75.109375-60.890625-136-136-136s-136 60.890625-136 136v8zm0 0"/><path d="m384 256h-288v-16c0-79.527344 64.472656-144 144-144s144 64.472656 144 144zm-272-16h256c0-70.691406-57.308594-128-128-128s-128 57.308594-128 128zm0 0"/></g><path d="m277.65625 202.34375c-3.125-3.121094-8.1875-3.121094-11.3125 0l-18.34375 18.34375v-44.6875c0-4.417969-3.582031-8-8-8s-8 3.582031-8 8v44.6875l-18.34375-18.34375c-3.140625-3.03125-8.128906-2.988281-11.214844.097656-3.085937 3.085938-3.128906 8.074219-.097656 11.214844l32 32c1.5 1.503906 3.539062 2.351562 5.664062 2.351562s4.164063-.847656 5.664063-2.351562l32-32c3.117187-3.128906 3.113281-8.191406-.015625-11.3125zm0 0" fill="#f69c7f"/></svg>